General
Complete name                    : Muse - Neutron Star Collision (Love Is Forever) 720p Anky.avi
Format                           : AVI
Format/Info                      : Audio Video Interleave
File size                        : 112 MiB
Duration                         : 4mn 7s
Overall bit rate                 : 3 803 Kbps
Writing application              : Lavf52.0.0

Video
Format                           : xvid
Codec ID                         : xvid
Duration                         : 4mn 7s
Bit rate                         : 3 471 Kbps
Width                            : 1 280 pixels
Height                           : 720 pixels
Display aspect ratio             : 16:9
Frame rate                       : 25.000 fps
Resolution                       : 24 bits
Bits/(Pixel*Frame)               : 0.151
Stream size                      : 103 MiB (91%)

Audio
ID                               : 1
Format                           : MPEG Audio
Format version                   : Version 1
Format profile                   : Layer 3
Codec ID                         : 55
Codec ID/Hint                    : MP3
Duration                         : 4mn 7s
Bit rate mode                    : Constant
Bit rate                         : 320 Kbps
Channel(s)                       : 2 channels
Sampling rate                    : 48.0 KHz
Resolution                       : 16 bits
Stream size                      : 9.45 MiB (8%)
Alignment                        : Aligned on interleaves
Interleave, duration             : 24 ms (0.60 video frame)
Writing library                  : LAME3.96.1

ScreenShots

 
http://img.sceper.eu/images/vlcsnahhh.png
 
http://img.sceper.eu/images/vlcsnatgt.png